# xmcd
#
# Track frame offsets:
#	150
#	14985
#	29970
#	51197
#	67187
#	82137
#	96970
#	108237
#	126477
#	144010
#	173297
#	182195
#	196057
#	205992
#	221802
#	232980
#	247337
#	267545
#	288240
#	300805
#
# Disc length: 4051 seconds
#
# Revision: 1
# Processed by: cddbd v1.4PL0 Copyright (c) Steve Scherf et al.
# Submitted via: audiograbber 1.81.03
#
DISCID=340fd114
DTITLE=bada alade - unified and one
DYEAR=2002
DGENRE=Bluegrass
TTITLE0=Unified And One
TTITLE1=For You
TTITLE2=Gazing At You
TTITLE3=Bird
TTITLE4=Downtown
TTITLE5=BMW
TTITLE6=Mary Had A Baby
TTITLE7=Cold As Ice
TTITLE8=Condoleezza
TTITLE9=One World
TTITLE10=Tortoise And The Hare
TTITLE11=I Found Love
TTITLE12=I Believe In Love
TTITLE13=Love Casualty
TTITLE14=Must Have Been Dreaming
TTITLE15=One You've Broke Your Heart
TTITLE16=Woman And Man
TTITLE17=Trial By Fire
TTITLE18=Hold On
TTITLE19=Unified And One - Outro
EXTD=
EXTT0=
EXTT1=
EXTT2=
EXTT3=
EXTT4=
EXTT5=
EXTT6=
EXTT7=
EXTT8=
EXTT9=
EXTT10=
EXTT11=
EXTT12=
EXTT13=
EXTT14=
EXTT15=
EXTT16=
EXTT17=
EXTT18=
EXTT19=
PLAYORDER=
